HIERARCHY
ROOT Hips
{
	OFFSET 0.00000 0.00000 0.00000
	CHANNELS 6 Xposition Yposition Zposition Zrotation Yrotation Xrotation 
	JOINT LHipJoint
	{
		OFFSET 0 0 0
		CHANNELS 3 Zrotation Yrotation Xrotation
		JOINT LeftUpLeg
		{
			OFFSET 1.57358 -1.76629 0.73362
			CHANNELS 3 Zrotation Yrotation Xrotation
			JOINT LeftLeg
			{
				OFFSET 2.40600 -6.61045 0.00000
				CHANNELS 3 Zrotation Yrotation Xrotation
				JOINT LeftFoot
				{
					OFFSET 2.66168 -7.31291 0.00000
					CHANNELS 3 Zrotation Yrotation Xrotation
					JOINT LeftToeBase
					{
						OFFSET 0.20870 -0.57341 2.12506
						CHANNELS 3 Zrotation Yrotation Xrotation
						End Site
						{
							OFFSET 0.00000 -0.00000 1.10557
						}
					}
				}
			}
		}
	}
	JOINT RHipJoint
	{
		OFFSET 0 0 0
		CHANNELS 3 Zrotation Yrotation Xrotation
		JOINT RightUpLeg
		{
			OFFSET -1.49299 -1.76629 0.73362
			CHANNELS 3 Zrotation Yrotation Xrotation
			JOINT RightLeg
			{
				OFFSET -2.43663 -6.69460 0.00000
				CHANNELS 3 Zrotation Yrotation Xrotation
				JOINT RightFoot
				{
					OFFSET -2.62959 -7.22474 0.00000
					CHANNELS 3 Zrotation Yrotation Xrotation
					JOINT RightToeBase
					{
						OFFSET -0.25784 -0.70841 2.21862
						CHANNELS 3 Zrotation Yrotation Xrotation
						End Site
						{
							OFFSET -0.00000 -0.00000 1.16452
						}
					}
				}
			}
		}
	}
	JOINT LowerBack
	{
		OFFSET 0 0 0
		CHANNELS 3 Zrotation Yrotation Xrotation
		JOINT Spine
		{
			OFFSET -0.00034 2.12399 -0.25450
			CHANNELS 3 Zrotation Yrotation Xrotation
			JOINT Spine1
			{
				OFFSET 0.05594 2.14379 -0.03318
				CHANNELS 3 Zrotation Yrotation Xrotation
				JOINT Neck
				{
					OFFSET 0 0 0
					CHANNELS 3 Zrotation Yrotation Xrotation
					JOINT Neck1
					{
						OFFSET -0.09835 1.62725 0.24211
						CHANNELS 3 Zrotation Yrotation Xrotation
						JOINT Head
						{
							OFFSET 0.10849 1.66041 -0.22648
							CHANNELS 3 Zrotation Yrotation Xrotation
							End Site
							{
								OFFSET 0.04385 1.68267 -0.10541
							}
						}
					}
				}
				JOINT LeftShoulder
				{
					OFFSET 0 0 0
					CHANNELS 3 Zrotation Yrotation Xrotation
					JOINT LeftArm
					{
						OFFSET 3.29108 0.79398 -0.68179
						CHANNELS 3 Zrotation Yrotation Xrotation
						JOINT LeftForeArm
						{
							OFFSET 5.15310 -0.00000 -0.00000
							CHANNELS 3 Zrotation Yrotation Xrotation
							JOINT LeftHand
							{
								OFFSET 3.75138 -0.00000 -0.00000
								CHANNELS 3 Zrotation Yrotation Xrotation
								JOINT LeftFingerBase
								{
									OFFSET 0 0 0
									CHANNELS 3 Zrotation Yrotation Xrotation
									JOINT LeftHandIndex1
									{
										OFFSET 0.52917 -0.00000 0.00000
										CHANNELS 3 Zrotation Yrotation Xrotation
										End Site
										{
											OFFSET 0.42663 -0.00000 0.00000
										}
									}
								}
								JOINT LThumb
								{
									OFFSET 0 0 0
									CHANNELS 3 Zrotation Yrotation Xrotation
									End Site
									{
										OFFSET 0.43315 -0.00000 0.43315
									}
								}
							}
						}
					}
				}
				JOINT RightShoulder
				{
					OFFSET 0 0 0
					CHANNELS 3 Zrotation Yrotation Xrotation
					JOINT RightArm
					{
						OFFSET -3.07414 1.06285 -0.44338
						CHANNELS 3 Zrotation Yrotation Xrotation
						JOINT RightForeArm
						{
							OFFSET -5.29613 -0.00000 0.00000
							CHANNELS 3 Zrotation Yrotation Xrotation
							JOINT RightHand
							{
								OFFSET -3.76144 -0.00000 -0.00000
								CHANNELS 3 Zrotation Yrotation Xrotation
								JOINT RightFingerBase
								{
									OFFSET 0 0 0
									CHANNELS 3 Zrotation Yrotation Xrotation
									JOINT RightHandIndex1
									{
										OFFSET -0.74732 -0.00000 0.00000
										CHANNELS 3 Zrotation Yrotation Xrotation
										End Site
										{
											OFFSET -0.60251 -0.00000 0.00000
										}
									}
								}
								JOINT RThumb
								{
									OFFSET 0 0 0
									CHANNELS 3 Zrotation Yrotation Xrotation
									End Site
									{
										OFFSET -0.61171 -0.00000 0.61171
									}
								}
							}
						}
					}
				}
			}
		}
	}
}
MOTION
Frames: 11
Frame Time: 0.105263
0.00 0.00 0.00 0 0 0 0 0 0 -21 0 0 0 0 0 0 0 0 0 0 0 0 0 0 21 0 0 0 0 0 0 0 0 0 0 0 0 0 0 0 0 0 0 0 0 0 0 -16 0 0 21 0 0 11 0 0 0 -8 0 0 0 0 0 0 0 0 0 0 0 0 0 0 0 0 0 0 0 0 8 0 0 0 0 0 0 0 0 0 0 0 0 0 0 0 0 0
0.00 0.00 0.00 5.0810 2.6805 1.5162 0.0000 0.0000 0.0000 -27.8042 -1.9685 12.2255 4.0781 12.2636 36.6709 1.3830 -7.7210 26.2133 0.7564 -5.5547 -15.4976 0.0000 0.0000 0.0000 14.9172 11.6157 -32.6870 -3.7365 -11.8012 35.0323 0.0575 -4.2735 -2.0462 -0.0645 -1.6392 4.5096 -8.5122 -5.0163 7.8054 5.3279 -7.2974 -2.0231 11.3023 -3.2991 -4.7516 -13.7657 0.6576 -10.8183 2.3766 2.9686 17.5467 3.2909 0.7233 6.9642 0.0000 -0.0000 0.0000 -90.3522 -1.9347 11.8110 25.0275 -36.2321 -8.3062 -0.0000 0.0000 -1.3876 22.2175 26.6154 10.3695 -7.1250 0.0000 -0.0000 -8.8328 58.1877 -2.8643 0.0000 -0.0000 0.0000 82.9083 -16.5112 1.6152 -9.1477 15.3955 -1.2390 0.0000 0.0000 23.6074 -14.4923 9.9230 -2.5504 7.1250 -0.0000 -0.0000 8.8911 -19.7985 5.4190
0.00 0.00 0.00 0.9030 0.6697 0.5778 0.0000 0.0000 0.0000 -22.7865 -3.4732 0.3943 8.7203 16.6243 55.1178 0.8888 -7.1011 21.7474 0.0544 -1.5048 -4.1389 0.0000 0.0000 0.0000 21.7517 10.4980 -24.7700 -3.6267 -11.6464 34.4921 -0.0980 -2.8892 -7.7057 -0.1980 -2.8651 7.9035 -4.2272 -3.8304 8.1050 5.8621 -5.2358 -1.6233 9.2616 -2.3711 -5.3213 -13.2148 0.0933 -9.5411 3.2045 1.7577 17.9627 3.3701 0.2305 6.9582 -0.0000 0.0000 0.0000 -90.6864 -0.6588 14.4337 22.7933 -33.8620 -7.0228 -0.0000 0.0000 -1.9466 19.0439 27.3126 9.0001 -7.1250 0.0000 -0.0000 -12.6220 58.1809 -4.1129 -0.0000 0.0000 0.0000 83.5533 -14.5976 5.1263 -10.1743 17.0118 -1.5256 0.0000 0.0000 18.4245 -16.8644 12.3287 -3.7035 7.1250 -0.0000 -0.0000 7.2020 -17.1780 4.7919
0.00 0.00 0.00 -1.0439 -1.5757 0.8306 0.0000 0.0000 0.0000 -19.5495 -5.0379 -13.7272 11.5511 18.1944 64.5586 -0.0581 -5.0602 4.7323 0.2126 -2.9682 -8.1902 0.0000 0.0000 0.0000 25.6124 8.2759 -16.4055 -3.0657 -10.8007 31.6105 -0.4010 -1.2360 -12.4745 -0.2554 -3.2515 8.9796 -2.4086 -2.7219 6.9152 5.7892 -3.5833 -1.0236 7.8332 -1.6513 -4.4300 -12.7146 -0.4242 -9.9724 3.7844 0.9277 18.7072 3.4303 -0.1094 7.3376 0.0000 -0.0000 0.0000 -91.3743 2.2874 17.0158 20.1823 -30.8613 -5.6245 -0.0000 -0.0000 4.5604 19.1083 21.5450 7.2505 -7.1250 0.0000 -0.0000 -9.9000 52.3888 -1.8150 0.0000 -0.0000 0.0000 83.5934 -9.2564 11.3112 -12.1631 20.0488 -2.1579 0.0000 0.0000 12.9688 -16.9631 10.1943 -3.0901 7.1250 -0.0000 -0.0000 7.1340 -19.3754 4.3972
0.00 0.00 0.00 -3.7325 -5.3371 1.4419 0.0000 0.0000 0.0000 -14.5510 -8.7982 -29.4879 9.5278 17.1356 57.8980 0.2906 0.2310 -10.2689 0.0182 -0.8704 -2.3922 0.0000 0.0000 0.0000 30.4043 8.5463 -4.3477 -2.4521 -9.7503 28.1720 -0.8454 -3.3338 -18.8831 -0.0030 -0.3522 0.9677 1.7306 0.0782 7.4297 4.0614 0.4023 0.4593 3.1989 0.2011 -3.7131 -9.3464 -2.8170 -15.3162 4.3828 -2.5578 19.6772 2.7331 -1.4414 8.8737 -0.0000 0.0000 0.0000 -88.7608 4.2186 25.9500 16.3373 -25.9759 -3.7925 -0.0000 -0.0000 6.0713 17.6036 28.4515 8.5958 -7.1250 0.0000 -0.0000 -14.8407 58.9782 -5.1408 -0.0000 0.0000 0.0000 85.6030 0.4164 16.0815 -16.5465 26.2561 -3.8846 0.0000 0.0000 5.6125 -17.5559 9.2524 -2.9120 7.1250 -0.0000 -0.0000 6.7188 -20.3154 3.9954
0.00 0.00 0.00 -5.6353 -7.0444 2.0240 0.0000 0.0000 0.0000 -10.4434 -11.4905 -32.9356 5.4779 13.9025 42.8483 0.2554 4.1942 -12.0301 0.0258 -1.0359 -2.8477 0.0000 0.0000 0.0000 32.2772 4.5976 3.3138 -1.6272 -8.0421 22.8420 -1.0155 -2.7884 -20.2331 -0.0002 -0.0972 0.2670 0.9125 -1.8623 7.8652 7.0717 -2.0218 -1.3510 7.2270 -0.9152 -5.6216 -14.0425 0.2669 -9.7282 4.3515 1.9652 19.4211 3.9376 0.3124 7.4217 0.0000 0.0000 0.0000 -96.4060 12.4609 17.8748 15.5293 -24.8782 -3.4455 -0.0000 -0.0000 9.9780 11.7184 27.9639 5.5554 -7.1250 0.0000 -0.0000 -20.6505 57.2292 -6.3697 0.0000 0.0000 0.0000 78.3297 0.7563 32.3295 -21.2480 32.1167 -6.1813 0.0000 0.0000 0.0152 -17.8928 7.8153 -2.5137 7.1250 -0.0000 -0.0000 6.4929 -21.7921 3.6414
0.00 0.00 0.00 -6.7509 -10.0647 3.5393 0.0000 0.0000 0.0000 -3.6651 -18.9700 -32.4957 1.9423 8.7449 25.0006 -0.3928 12.2163 -10.1257 0.0150 -0.7902 -2.1718 0.0000 0.0000 0.0000 31.9652 1.9283 11.2102 -0.8711 -5.9507 16.6413 -0.8240 -1.9679 -17.9668 -0.1084 2.1233 -5.8466 4.3490 1.4683 6.6658 4.3691 2.4530 -0.0163 1.8486 1.1726 -3.7716 -9.7397 -3.0555 -15.9595 4.7544 -2.8292 20.7433 2.9032 -1.5703 9.3934 -0.0000 -0.0000 0.0000 -91.0325 10.5473 25.2933 13.1160 -21.4570 -2.4956 -0.0000 -0.0000 12.4023 11.8752 26.2419 5.3120 -7.1250 0.0000 -0.0000 -19.3990 55.6458 -5.2095 -0.0000 -0.0000 0.0000 81.6016 6.1072 26.7800 -25.6938 36.9047 -8.7031 0.0000 -0.0000 -0.7017 -18.0624 10.1499 -3.2892 7.1250 -0.0000 -0.0000 6.3541 -19.3503 3.9138
0.00 0.00 0.00 -5.2633 -12.4623 1.6186 0.0000 0.0000 0.0000 -7.7312 -13.1669 -32.1456 1.6417 8.0760 22.9453 -0.0445 3.7402 -1.4949 0.9833 -6.3119 -17.6923 0.0000 0.0000 0.0000 26.0387 -0.3199 19.3911 -1.8427 -8.5305 24.3373 -0.0870 4.5217 -5.7184 -0.7641 5.5821 -15.5764 3.2809 2.1231 5.7011 3.4281 3.1561 -0.0624 1.4346 1.5405 -3.2792 -9.3437 -2.7730 -15.0546 4.9285 -2.7034 21.9105 2.9358 -1.4923 9.6166 0.0000 0.0000 0.0000 -93.7863 14.2521 14.0249 9.9372 -16.6412 -1.4569 -0.0000 -0.0000 16.5446 12.5934 26.1526 5.6237 -7.1250 0.0000 -0.0000 -18.6259 55.7031 -5.0173 0.0000 0.0000 0.0000 82.5074 4.8603 24.9414 -34.0152 44.0960 -14.1237 0.0000 -0.0000 -4.9661 -20.4589 9.3697 -3.4757 7.1250 -0.0000 -0.0000 4.6405 -20.0079 2.7817
0.00 0.00 0.00 -2.6351 -11.1777 -0.0068 0.0000 0.0000 0.0000 -12.6076 -11.3035 -32.8208 2.8932 10.5201 30.6779 -0.0658 -4.5762 2.2297 0.1245 -2.2747 -6.2655 0.0000 0.0000 0.0000 22.8518 0.6334 14.7517 -4.3564 -12.6201 37.9627 -0.2508 1.7353 10.2586 -0.0263 1.0464 -2.8764 0.3844 1.9541 6.7217 2.7762 2.7488 -0.2875 2.3772 1.3851 -4.1875 -9.6595 -3.1065 -15.1075 5.4277 -3.2330 22.7483 3.1094 -1.7214 9.9803 -0.0000 -0.0000 0.0000 -94.0769 13.1603 9.0649 8.5040 -14.3666 -1.0737 -0.0000 -0.0000 20.0054 10.7473 30.0967 5.4371 -7.1250 0.0000 -0.0000 -23.1863 58.9849 -8.2002 -0.0000 -0.0000 0.0000 83.5888 2.5288 22.4841 -35.0826 44.8710 -14.8716 0.0000 -0.0000 -5.6812 -19.0201 11.3961 -3.8966 7.1250 -0.0000 -0.0000 5.6877 -17.9794 3.6725
0.00 0.00 0.00 -0.2286 -11.3818 -2.1168 0.0000 0.0000 0.0000 -17.6638 -9.5518 -29.5715 4.0031 12.1646 36.3166 -0.0797 -6.2978 -1.7827 0.0006 -0.1627 -0.4470 0.0000 0.0000 0.0000 19.6435 3.5750 6.4256 -9.1218 -16.8855 56.5104 -0.4834 0.0427 13.1528 -0.4037 -4.0791 11.2992 -1.1641 2.2586 7.9071 1.7225 2.9754 0.2900 2.0961 1.5139 -4.2837 -9.5562 -3.1560 -15.0114 5.4748 -3.3301 22.1145 3.0862 -1.7438 9.7432 -0.0000 -0.0000 0.0000 -93.5828 11.8416 6.4516 8.8566 -14.9316 -1.1629 -0.0000 -0.0000 21.9982 11.7057 28.0881 5.5717 -7.1250 0.0000 -0.0000 -20.7471 57.3424 -6.4587 -0.0000 -0.0000 0.0000 85.8351 0.7899 19.7215 -33.7095 43.8683 -13.9113 0.0000 -0.0000 -5.3798 -20.9252 10.0481 -3.8167 7.1250 -0.0000 -0.0000 4.3190 -19.2546 2.6607
0.00 0.00 0.00 1.9700 -9.8481 -2.9156 0.0000 0.0000 0.0000 -23.2020 -11.1028 -21.9681 4.2257 12.4549 37.3607 0.2096 -3.8079 -8.1710 0.0157 0.8101 2.2265 0.0000 0.0000 0.0000 15.3773 4.6587 -8.1769 -13.4773 -18.9478 70.6016 0.0875 -5.2424 -2.0915 -0.3360 -3.7253 10.3052 -2.7828 1.4727 7.9399 1.2337 1.7608 0.3103 2.6428 0.9390 -4.2560 -9.9384 -2.6218 -14.7637 4.7245 -2.3435 23.0924 3.0296 -1.4247 9.9622 0.0000 0.0000 0.0000 -92.3541 9.8832 14.6859 10.3198 -17.2383 -1.5684 -0.0000 -0.0000 12.5613 15.4279 25.4300 6.7582 -7.1250 0.0000 -0.0000 -15.3554 55.5697 -4.0525 0.0000 0.0000 0.0000 87.0697 -0.8269 19.7561 -29.1190 40.1262 -10.8374 0.0000 -0.0000 -3.6575 -18.3527 10.6777 -3.5173 7.1250 -0.0000 -0.0000 6.1502 -18.7802 3.8650
